<svg width="41" height="40" viewBox="0 0 41 40" fill="none" xmlns="http://www.w3.org/2000/svg">
<rect x="0.495117" width="40" height="40" rx="8" fill="url(#paint0_radial_60_1985)"/>
<path fill-rule="evenodd" clip-rule="evenodd" d="M28.6676 13.3275C28.6676 14.1561 27.9959 14.8275 27.1676 14.8275C26.3393 14.8275 25.6676 14.1561 25.6676 13.3275C25.6676 12.499 26.3393 11.8275 27.1676 11.8275C27.9961 11.8275 28.6676 12.499 28.6676 13.3275ZM20.4951 24.1666C18.1939 24.1666 16.3285 22.3012 16.3285 20C16.3285 17.6988 18.1939 15.8334 20.4951 15.8334C22.7963 15.8334 24.6617 17.6988 24.6617 20C24.6617 22.3012 22.7963 24.1666 20.4951 24.1666ZM20.4951 13.5811C16.95 13.5811 14.0762 16.4549 14.0762 20C14.0762 23.5451 16.95 26.4189 20.4951 26.4189C24.0402 26.4189 26.9141 23.5451 26.9141 20C26.9141 16.4549 24.0402 13.5811 20.4951 13.5811ZM20.4951 9.75234C23.8328 9.75234 24.2281 9.76504 25.5461 9.8252C26.7648 9.88086 27.4268 10.0844 27.8672 10.2557C28.4506 10.4824 28.867 10.7533 29.3045 11.1908C29.742 11.6281 30.0129 12.0445 30.2396 12.6281C30.4107 13.0686 30.6145 13.7305 30.6701 14.9492C30.7303 16.2674 30.743 16.6627 30.743 20.0004C30.743 23.3381 30.7303 23.7334 30.6701 25.0514C30.6145 26.2701 30.4109 26.932 30.2396 27.3725C30.0129 27.9559 29.742 28.3723 29.3045 28.8098C28.8672 29.2473 28.4508 29.5182 27.8672 29.7449C27.4268 29.916 26.7648 30.1197 25.5461 30.1754C24.2281 30.2355 23.8328 30.2482 20.4951 30.2482C17.1572 30.2482 16.7619 30.2355 15.4439 30.1754C14.2252 30.1197 13.5633 29.9162 13.1229 29.7449C12.5395 29.5182 12.123 29.2473 11.6855 28.8098C11.2482 28.3725 10.9771 27.9561 10.7504 27.3725C10.5793 26.932 10.3756 26.2701 10.3199 25.0514C10.2598 23.7332 10.2471 23.3379 10.2471 20.0004C10.2471 16.6627 10.2598 16.2674 10.3199 14.9492C10.3756 13.7305 10.5791 13.0686 10.7504 12.6281C10.9771 12.0447 11.248 11.6283 11.6855 11.1908C12.1229 10.7533 12.5393 10.4824 13.1229 10.2557C13.5633 10.0846 14.2252 9.88086 15.4439 9.8252C16.7621 9.76504 17.1574 9.75234 20.4951 9.75234ZM20.4951 7.5C17.1004 7.5 16.6746 7.51445 15.3414 7.5752C14.0109 7.63594 13.1021 7.84727 12.3072 8.15625C11.4852 8.47559 10.7881 8.90312 10.0932 9.59805C9.39824 10.293 8.9707 10.99 8.65137 11.8121C8.34238 12.6072 8.13105 13.5158 8.07031 14.8463C8.00957 16.1795 7.99512 16.6053 7.99512 20C7.99512 23.3947 8.00957 23.8205 8.07031 25.1537C8.13105 26.4842 8.34238 27.3928 8.65137 28.1879C8.9707 29.01 9.39824 29.707 10.0932 30.402C10.7881 31.0969 11.4852 31.5242 12.3072 31.8437C13.1023 32.1527 14.0109 32.3641 15.3414 32.4248C16.6746 32.4855 17.1004 32.5 20.4951 32.5C23.8898 32.5 24.3156 32.4855 25.6488 32.4248C26.9793 32.3641 27.8879 32.1527 28.683 31.8437C29.5051 31.5242 30.2021 31.0969 30.8971 30.402C31.592 29.707 32.0193 29.01 32.3389 28.1879C32.6479 27.3928 32.8592 26.4842 32.9199 25.1537C32.9807 23.8205 32.9951 23.3947 32.9951 20C32.9951 16.6053 32.9807 16.1795 32.9199 14.8463C32.8592 13.5158 32.6479 12.6072 32.3389 11.8121C32.0193 10.99 31.592 10.293 30.8971 9.59805C30.2021 8.90312 29.5051 8.47578 28.683 8.15625C27.8879 7.84727 26.9793 7.63594 25.6488 7.5752C24.3156 7.51445 23.8898 7.5 20.4951 7.5Z" fill="white"/>
<defs>
<radialGradient id="paint0_radial_60_1985" cx="0" cy="0" r="1" gradientUnits="userSpaceOnUse" gradientTransform="translate(6.46733 -6.70323) scale(51.11)">
<stop stop-color="#FFB140"/>
<stop offset="0.2559" stop-color="#FF5445"/>
<stop offset="0.599" stop-color="#FC2B82"/>
<stop offset="1" stop-color="#8E40B7"/>
</radialGradient>
</defs>
</svg>
