<svg width="40" height="40" viewBox="0 0 40 40" fill="none" xmlns="http://www.w3.org/2000/svg">
<rect x="1.90482" y="1.90479" width="36.1905" height="36.1905" rx="5" fill="#2878B7"/>
<path d="M32.381 22.3721V30.4763H27.4611V22.8663C27.4611 20.9884 26.7436 19.7036 25.0011 19.7036C23.6687 19.7036 22.8487 20.5931 22.5412 21.3838C22.4387 21.6803 22.3362 22.0756 22.3362 22.5698V30.4763H17.4162C17.4162 30.4763 17.5187 17.6282 17.4162 16.3433H22.3362V18.32C22.9512 17.3317 24.1811 15.948 26.7436 15.948C29.9211 15.948 32.381 18.0235 32.381 22.3721ZM12.2913 9.52393C10.6513 9.52393 9.52386 10.6111 9.52386 11.9947C9.52386 13.3784 10.5488 14.4655 12.1888 14.4655C13.9313 14.4655 14.9563 13.3784 14.9563 11.9947C15.0588 10.5122 14.0338 9.52393 12.2913 9.52393ZM9.83136 30.4763H14.7513V16.3433H9.83136V30.4763Z" fill="white"/>
</svg>
