<svg width="98" height="36" viewBox="0 0 98 36" fill="none" xmlns="http://www.w3.org/2000/svg">
<path d="M46.7087 17.4088C46.7087 18.4671 46.3383 19.3666 45.6504 20.1074C44.9625 20.8482 43.9042 21.2186 42.846 21.2186C41.7877 21.2186 40.8881 20.8482 40.2002 20.1074C39.5653 19.3666 39.1949 18.4671 39.1949 17.4088C39.1949 16.3505 39.5653 15.4509 40.2002 14.7101C40.8881 13.9693 41.7877 13.599 42.846 13.599C43.9042 13.599 45.0154 13.9693 45.7033 14.7101C46.3912 15.4509 46.7087 16.3505 46.7087 17.4088ZM46.6558 12.329C45.5446 11.3766 44.1688 10.9003 42.5814 10.9003C40.8352 10.9003 39.142 11.5353 37.9249 12.7523C36.7608 13.9694 36.1788 15.5568 36.1788 17.4088C36.1788 19.2608 36.7608 20.8482 37.9249 22.1181C39.089 23.3881 40.7823 23.9701 42.5814 23.9701C44.2217 23.9701 45.4387 23.4939 46.6558 22.5414V23.7056H49.5131V11.1649H46.6558V12.329Z" fill="white"/>
<path fill-rule="evenodd" clip-rule="evenodd" d="M52.1589 23.8642C53.6405 23.8642 54.8046 23.2293 55.5983 22.0123C55.9158 21.536 56.1804 20.7952 56.392 20.319C56.6037 19.7899 56.8153 18.7845 56.9212 18.3083C56.9741 18.0966 57.0799 17.7262 57.1328 17.1971L57.2916 16.1388C57.2916 15.9271 57.3974 15.5567 57.4503 14.9747L57.609 13.9164H60.4135V23.7055H63.3767V11.1649H55.0162L54.9104 12.0644C54.6458 14.4455 54.4342 16.2975 54.1696 17.6204C53.958 18.8903 53.5876 19.8957 53.1113 20.5836C52.6351 21.2185 52.0531 21.536 51.2593 21.536L51.4181 23.7584C51.7356 23.8113 52.0001 23.8642 52.1589 23.8642Z" fill="white"/>
<path d="M90.0454 13.4931C92.9027 13.4931 94.596 15.0276 94.596 17.4087C94.596 19.8428 92.8498 21.3773 90.0454 21.3773V13.4931ZM82.6374 17.4087C82.6374 14.9747 84.3306 13.4931 87.188 13.4931V21.3773C84.3836 21.3244 82.6374 19.8957 82.6374 17.4087ZM97.5063 17.4087C97.5063 15.4509 96.8184 13.8635 95.4426 12.6994C94.0668 11.5353 92.2678 10.9003 90.0454 10.8474V7.51379H87.188V10.8474C84.9127 10.9003 83.1136 11.5353 81.7908 12.6994C80.415 13.8635 79.78 15.4509 79.78 17.4087C79.78 19.3666 80.415 20.9011 81.7908 22.0652C83.1665 23.2293 84.9656 23.8114 87.188 23.9172V27.2508H90.0454V23.9172C92.3207 23.8643 94.1198 23.2293 95.4426 22.0652C96.8184 20.954 97.5063 19.4195 97.5063 17.4087Z" fill="white"/>
<path d="M67.7686 23.6526L74.8061 15.8742V23.6526H77.6635V11.1649H75.8115L68.7739 19.0491V11.1649H65.8636V23.6526H67.7686Z" fill="white"/>
<path fill-rule="evenodd" clip-rule="evenodd" d="M16.1206 35.9201C13.6905 35.6922 11.4122 35.0088 9.28588 33.8697C5.26101 31.6674 2.14743 27.9463 0.704556 23.2379C-0.662381 18.5296 0.0210872 13.6694 2.22337 9.72044C5.10913 4.40457 10.6528 0.759409 16.5762 0H16.7281L18.2469 3.79705C18.171 3.79705 18.095 3.79705 18.095 3.79705C13.0829 4.10081 8.07083 7.06251 5.64072 11.543C3.89407 14.6566 3.43843 18.4536 4.5016 22.0988C5.56477 25.8199 8.07083 28.7057 11.1844 30.3764C12.8551 31.2877 14.6777 31.8192 16.5762 32.0471C20.753 32.4268 24.6259 31.0598 27.6636 28.6297C27.8155 28.4778 27.9673 28.4019 28.1192 28.25L29.638 32.0471C25.9169 34.8569 21.1327 36.3757 16.1206 35.9201ZM20.2214 8.88509H15.4371L9.134 24.453H13.2348L17.8672 12.3784L22.4996 24.453H26.6004L20.2214 8.88509Z" fill="#39B980"/>
</svg>
